# xmcd
#
# Track frame offsets:
#       150
#       9500
#       21112
#       30819
#       40937
#       55189
#       66577
#       73840
#       82967
#       98095
#       110095
#       122432
#       130907
#       140342
#       152230
#
# Disc length: 2107 seconds
#
# Revision: 1
# Processed by: cddbd v1.5.1PL0 Copyright (c) Steve Scherf et al.
# Submitted via: MusiCat 1.1
#
DISCID=c408390f
DTITLE=Enúbio Queiroz - Moda de viola para mão esquerda
DYEAR=1900
DGENRE=
TTITLE0=Viola de 80 baixos
TTITLE1=Raízes paraguaias
TTITLE2=Visões do nordeste
TTITLE3=Golden country viola
TTITLE4=Menino da porteira
TTITLE5=Revoada de andorinhas
TTITLE6=Quarto de milha
TTITLE7=Fascinação
TTITLE8=Alvorecer
TTITLE9=Saudades de Matão
TTITLE10=Minueto em sol maior
TTITLE11=Soleado
TTITLE12=Noite Feliz
TTITLE13=Santa Cecília
TTITLE14=Moda de viola para mão esquerda
EXTD=\n\n
EXTT0=
EXTT1=
EXTT2=
EXTT3=
EXTT4=
EXTT5=
EXTT6=
EXTT7=
EXTT8=
EXTT9=
EXTT10=
EXTT11=
EXTT12=
EXTT13=
EXTT14=
PLAYORDER=
